<?xml version="1.0" encoding="UTF-8" standalone="no"?>
<svg width="20px" height="20px" viewBox="0 0 20 20" version="1.1" xmlns="http://www.w3.org/2000/svg" xmlns:xlink="http://www.w3.org/1999/xlink">
    <!-- Generator: Sketch 43.2 (39069) - http://www.bohemiancoding.com/sketch -->
    <title>Icon/ Save Grey</title>
    <desc>Created with Sketch.</desc>
    <defs></defs>
    <g id="Symbols" stroke="none" stroke-width="1" fill="none" fill-rule="evenodd">
        <g id="Icon/-Save-Grey" fill-rule="nonzero" fill="#e31837">
            <path d="M15.7598784,19.9999981 C15.6260161,20.0003209 15.4948862,19.9603418 15.382108,19.8848227 L10.002211,16.3642079 L4.62230936,19.8848227 C4.38104935,20.0423872 4.07265331,20.0310193 3.84256913,19.8560804 C3.61248495,19.6811416 3.50666779,19.3775726 3.57502387,19.0885449 L5.11008706,12.6482608 L0.246661709,8.37144175 C0.0302560119,8.17924437 -0.0535695191,7.8690171 0.0345835037,7.58656819 C0.122736527,7.30411928 0.365336389,7.10562166 0.648360032,7.08437013 L6.97511615,6.61862086 L9.35182987,0.458783766 C9.45809302,0.181627264 9.71462302,-2.84217094e-14 9.99981517,-2.84217094e-14 C10.2850073,-2.84217094e-14 10.5415373,0.181627264 10.6478005,0.458783766 L13.0245142,6.61862086 L19.3560364,7.08437013 C19.6382183,7.10743464 19.8791919,7.30660787 19.9661765,7.58867244 C20.053161,7.87073701 19.9689476,8.17989024 19.7529501,8.37144175 L14.8943163,12.6432617 L16.4293795,19.0885449 C16.4821903,19.305995 16.4367515,19.5367985 16.3061184,19.7146413 C16.1754853,19.8924841 15.97412,19.9976777 15.7598784,19.9999981 L15.7598784,19.9999981 Z M5.34441127,17.6913214 L9.62918563,14.8868275 C9.85587183,14.7381568 10.1437353,14.7381568 10.3704215,14.8868275 L14.6599921,17.6913214 L13.4357795,12.5531064 C13.370628,12.2829179 13.4577812,11.9974372 13.6605205,11.8169402 L17.5340574,8.41650718 L12.493691,8.04591229 C12.2276828,8.02601063 11.9957294,7.84917339 11.8959247,7.59018569 L10.002211,2.68734733 L8.10848102,7.59018569 C8.00867628,7.84917339 7.77672284,8.02601063 7.51071469,8.04591229 L2.46556826,8.41650718 L6.33909361,11.8169402 C6.5435887,11.9962766 6.63266265,12.2819466 6.56863551,12.5531064 L5.34441127,17.6913214 L5.34441127,17.6913214 Z" id="Shape"></path>
        </g>
    </g>
</svg>