<?xml version="1.0" encoding="UTF-8" standalone="no"?>
<svg width="69px" height="89px" viewBox="0 0 69 89" version="1.1" xmlns="http://www.w3.org/2000/svg" xmlns:xlink="http://www.w3.org/1999/xlink">
    <!-- Generator: Sketch 43.1 (39012) - http://www.bohemiancoding.com/sketch -->
    <title>ICSC LOGO</title>
    <desc>Created with Sketch.</desc>
    <defs></defs>
    <g id="Symbols" stroke="none" stroke-width="1" fill="none" fill-rule="evenodd">
        <g id="Nav/Attend-&amp;-Learn" transform="translate(-95.000000, -20.000000)">
            <g id="ICSC-LOGO" transform="translate(95.000000, 20.000000)">
                <g id="Page-1">
                    <polygon id="Fill-1" fill="#E31837" points="0.347908944 47.4928381 0.343269802 62.6064197 15.6193032 47.6994422 15.6252678 32.7944323"></polygon>
                    <polygon id="Fill-2" fill="#E31837" points="34.7637849 14.6969628 34.758483 29.8118562 34.7750514 29.8020179 34.7717377 31.660143 43.4608516 40.1466523 34.7704123 48.5118226 34.7637849 63.6273719 50.0444575 48.7210503 50.0444575 46.5723677 50.0471084 33.8140727 50.0471084 31.4607537 41.5031334 23.2320076 50.0384928 14.9075022 50.0444575 -0.000131177205"></polygon>
                    <polygon id="Fill-3" fill="#E31837" points="32.6757069 31.5116504 32.6810088 16.604017 17.4029872 31.3037346 17.398348 46.412725 17.398348 48.6322433 32.670405 63.5503709 32.673056 48.4341657 23.946829 40.030954"></polygon>
                    <polygon id="Fill-4" fill="#E31837" points="67.2104112 16.7385392 51.9304014 31.4389127 51.9304014 33.5515216 51.9304014 33.5502098 51.9244368 48.459155 67.1964938 63.3740031 67.2017957 48.2571421 58.634625 40.0060959 67.2051093 31.6481403"></polygon>
                    <g id="Group-12" transform="translate(0.060659, 66.444534)" fill="#000000">
                        <polygon id="Fill-5" points="0.917378254 21.0683708 6.0920103 21.0683708 6.0920103 0.582426788 0.917378254 0.582426788"></polygon>
                        <path d="M22.9497262,7.40101788 C22.2227063,5.50222785 20.4498911,4.32228889 18.6465902,4.32228889 C15.797494,4.32228889 13.5302788,6.22173481 13.5302788,10.8253988 C13.5302788,13.8182067 14.751036,17.3285087 18.8215521,17.3285087 C20.2172713,17.3285087 22.2518666,16.2922088 23.0657047,14.4504809 L27.1653812,16.4069889 C25.3919033,19.6004979 22.3101872,21.6442388 18.8215521,21.6442388 C12.2220406,21.6442388 8.35498399,16.5794869 8.35498399,10.8253988 C8.35498399,5.07065484 11.9602604,0.00655886023 18.4146331,0.00655886023 C22.4844865,0.00655886023 25.1592835,1.96372275 27.0779002,5.35924469 L22.9497262,7.40101788 Z" id="Fill-6"></path>
                        <path d="M32.5487084,14.9397718 C34.3506839,16.5512838 36.0671666,17.5003509 38.5371786,17.5003509 C39.9044001,17.5003509 42.4042352,16.9251388 42.4042352,15.1411288 C42.4042352,14.1054848 41.6195574,13.5873349 40.0786993,13.3282599 L35.7755633,12.6376119 C31.9383298,12.0335409 29.8447511,10.0193149 29.8447511,6.99895975 C29.8447511,2.04964382 33.8861069,0.00655886023 38.3052214,0.00655886023 C41.7355359,0.00655886023 45.1075298,1.38785482 47.4343911,3.94908974 L43.5096765,6.73988477 C42.1431177,5.09951383 40.13702,4.15044675 37.9559603,4.15044675 C36.7637007,4.15044675 35.0193831,4.89815682 35.0193831,6.22173481 C35.0193831,7.31509681 35.921365,7.86210576 37.8976396,8.17758693 L39.8752398,8.49437988 C44.0034139,9.15682477 47.404568,10.4226848 47.404568,14.3357008 C47.404568,20.4931588 41.7938566,21.6442388 37.9274627,21.6442388 C34.4096672,21.6442388 31.4147694,20.5220178 28.5948335,17.4714919 L32.5487084,14.9397718 Z" id="Fill-8"></path>
                        <path d="M63.8603353,7.40101788 C63.1333154,5.50222785 61.3605003,4.32228889 59.5571993,4.32228889 C56.7081031,4.32228889 54.4408879,6.22173481 54.4408879,10.8253988 C54.4408879,13.8182067 55.6623079,17.3285087 59.7321613,17.3285087 C61.1272177,17.3285087 63.1624758,16.2922088 63.9769766,14.4504809 L68.0753276,16.4069889 C66.3025125,19.6004979 63.2207964,21.6442388 59.7321613,21.6442388 C53.1326498,21.6442388 49.2655931,16.5794869 49.2655931,10.8253988 C49.2655931,5.07065484 52.8708696,0.00655886023 59.3252422,0.00655886023 C63.3957583,0.00655886023 66.0698926,1.96372275 67.9885094,5.35924469 L63.8603353,7.40101788 Z" id="Fill-10"></path>
                    </g>
                </g>
            </g>
        </g>
    </g>
</svg>