<?xml version="1.0" encoding="UTF-8" standalone="no"?>
<svg width="22px" height="22px" viewBox="0 0 22 22" version="1.1" xmlns="http://www.w3.org/2000/svg" xmlns:xlink="http://www.w3.org/1999/xlink">
    <!-- Generator: Sketch 43.1 (39012) - http://www.bohemiancoding.com/sketch -->
    <title>Icon - magnifying glass</title>
    <desc>Created with Sketch.</desc>
    <defs></defs>
    <g id="Symbols" stroke="none" stroke-width="1" fill="none" fill-rule="evenodd">
        <g id="Nav/Attend-&amp;-Learn" transform="translate(-1483.000000, -91.000000)" stroke="#343434">
            <g id="Icon/-Magnifying-Glass" transform="translate(1482.000000, 90.000000)">
                <path d="M14.2751912,2 C10.0142794,2 6.55038245,5.53759735 6.55038245,9.88916641 C6.55038245,11.8973203 7.28962483,13.7306477 8.50288466,15.1244404 L2.14127744,21.621401 C2.02209372,21.7371616 1.97345838,21.909657 2.01411143,22.0724219 C2.05476449,22.2351868 2.17836033,22.3628149 2.33727537,22.4061288 C2.4961904,22.4494427 2.66561928,22.4016816 2.78027816,22.2812486 L9.1489854,15.7770369 C10.5141704,17.0180126 12.3071855,17.7783328 14.2751912,17.7783328 C18.5361033,17.7783328 22,14.2407424 22,9.88916641 C22,5.53759735 18.5361033,2 14.2751912,2 L14.2751912,2 Z M14.2751912,2.92813722 C18.0449504,2.92813722 21.091199,6.03919983 21.091199,9.88916641 C21.091199,13.7391307 18.0449504,16.8501956 14.2751912,16.8501956 C10.5054321,16.8501956 7.45918348,13.7391307 7.45918348,9.88916641 C7.45918348,6.03919983 10.5054321,2.92813722 14.2751912,2.92813722 L14.2751912,2.92813722 Z" id="Shape" transform="translate(12.000000, 12.210918) scale(-1, 1) translate(-12.000000, -12.210918) "></path>
            </g>
        </g>
    </g>
</svg>